<svg width="2244" height="558" viewBox="0 0 2244 558" fill="none" xmlns="http://www.w3.org/2000/svg">
<path d="M2157.61 410V242.827C2157.61 221.019 2153.36 204.823 2144.86 194.239C2136.52 183.655 2123.13 178.364 2104.69 178.364C2084.81 178.364 2068.45 185.66 2055.62 200.252C2042.95 214.685 2036.62 234.328 2036.62 259.184V410H1993.32V205.304C1993.32 174.996 1992.84 156.475 1991.88 149.74H2032.77C2032.93 150.542 2033.09 152.707 2033.25 156.234C2033.41 159.762 2033.57 163.851 2033.73 168.502C2034.05 172.992 2034.37 181.571 2034.69 194.239H2035.41C2052.25 161.366 2079.99 144.929 2118.64 144.929C2146.38 144.929 2167.07 152.466 2180.7 167.54C2194.33 182.453 2201.14 205.464 2201.14 236.573V410H2157.61Z" fill="black"/>
<path d="M1916.83 279.629C1916.83 323.407 1906.73 356.922 1886.52 380.173C1866.48 403.265 1837.45 414.811 1799.45 414.811C1762.25 414.811 1733.7 403.104 1713.82 379.692C1694.09 356.28 1684.23 322.926 1684.23 279.629C1684.23 234.89 1694.34 201.295 1714.54 178.845C1734.91 156.234 1763.69 144.929 1800.89 144.929C1840.02 144.929 1869.12 156.074 1888.21 178.364C1907.29 200.653 1916.83 234.409 1916.83 279.629ZM1871.37 279.629C1871.37 245.153 1865.84 219.415 1854.77 202.417C1843.87 185.419 1826.15 176.92 1801.61 176.92C1776.76 176.92 1758.56 185.58 1747.01 202.898C1735.47 220.217 1729.69 245.794 1729.69 279.629C1729.69 313.304 1735.47 338.962 1747.01 356.601C1758.56 374.08 1775.88 382.819 1798.97 382.819C1824.46 382.819 1842.91 374.24 1854.29 357.082C1865.68 339.924 1871.37 314.106 1871.37 279.629Z" fill="black"/>
<path d="M1536.3 375.844H1627.71V410H1391.5V375.844H1493.01V183.896H1416.28V149.74H1536.3V375.844ZM1488.2 99.2273V53.0444H1536.3V99.2273H1488.2Z" fill="black"/>
<path d="M1268.59 368.147C1260.73 384.984 1250.31 397.251 1237.32 404.949C1224.33 412.485 1208.13 416.254 1188.73 416.254C1156.34 416.254 1132.52 405.109 1117.29 382.819C1102.06 360.53 1094.44 326.935 1094.44 282.035C1094.44 191.272 1125.87 145.891 1188.73 145.891C1208.13 145.891 1224.33 149.339 1237.32 156.234C1250.47 163.13 1260.97 174.435 1268.83 190.15H1269.31L1268.83 153.829V53.0444H1312.12V356.36C1312.12 383.461 1312.6 401.341 1313.57 410H1272.19C1271.55 407.594 1270.99 401.741 1270.51 392.441C1270.03 383.14 1269.79 375.042 1269.79 368.147H1268.59ZM1139.18 280.591C1139.18 316.191 1143.91 342.169 1153.37 358.525C1162.99 374.721 1178.55 382.819 1200.03 382.819C1223.45 382.819 1240.76 374.401 1251.99 357.563C1263.21 340.565 1268.83 313.625 1268.83 276.743C1268.83 242.266 1263.37 217.17 1252.47 201.455C1241.73 185.74 1224.41 177.883 1200.51 177.883C1178.87 177.883 1163.23 186.141 1153.61 202.658C1143.99 219.175 1139.18 245.153 1139.18 280.591Z" fill="black"/>
<path d="M853.18 149.74V314.748C853.18 339.763 857.109 357.162 864.967 366.944C872.824 376.565 886.855 381.376 907.06 381.376C927.746 381.376 944.103 374.32 956.13 360.209C968.156 346.098 974.17 326.213 974.17 300.556V149.74H1017.71V354.436C1017.71 384.744 1018.19 403.265 1019.15 410H978.259C978.099 409.198 977.938 407.033 977.778 403.505C977.618 399.978 977.377 395.969 977.056 391.479C976.896 386.828 976.655 378.169 976.335 365.501H975.613C965.671 383.461 954.125 396.209 940.976 403.746C927.987 411.122 911.791 414.811 892.388 414.811C863.844 414.811 842.917 407.755 829.608 393.643C816.458 379.372 809.884 355.879 809.884 323.166V149.74H853.18Z" fill="black"/>
<path d="M734.356 383.3C738.525 383.3 743.256 382.739 748.548 381.617V408.557C737.643 411.122 726.498 412.405 715.113 412.405C699.077 412.405 687.371 408.236 679.995 399.897C672.779 391.398 668.69 378.169 667.728 360.209H666.284C655.861 379.612 643.514 393.563 629.242 402.062C615.13 410.561 597.651 414.811 576.805 414.811C551.468 414.811 532.386 407.915 519.557 394.124C506.729 380.334 500.314 361.412 500.314 337.358C500.314 281.393 536.716 253.01 609.518 252.208L666.284 251.246V237.054C666.284 216.048 662.035 200.974 653.536 191.834C645.037 182.533 631.487 177.883 612.885 177.883C593.963 177.883 580.333 181.25 571.994 187.985C563.656 194.72 558.685 205.143 557.081 219.255L511.86 215.166C519.237 168.341 553.152 144.929 613.607 144.929C645.678 144.929 669.732 152.466 685.768 167.54C701.964 182.453 710.062 204.101 710.062 232.484V344.574C710.062 357.403 711.746 367.104 715.113 373.679C718.481 380.093 724.895 383.3 734.356 383.3ZM587.87 381.857C603.264 381.857 616.894 378.169 628.761 370.792C640.627 363.416 649.848 353.554 656.422 341.207C662.997 328.859 666.284 316.111 666.284 302.961V281.554L620.582 282.516C601.66 282.837 587.228 284.921 577.286 288.77C567.344 292.618 559.566 298.552 553.954 306.569C548.502 314.427 545.776 324.93 545.776 338.08C545.776 351.229 549.304 361.812 556.359 369.83C563.575 377.848 574.079 381.857 587.87 381.857Z" fill="black"/>
<g clip-path="url(#clip0_1_3949)">
<path d="M15.3674 217.645C11.2913 217.646 7.38255 219.263 4.50074 222.14C1.61892 225.016 4.32478e-07 228.917 5.88345e-07 232.985V325.014C-0.000557936 327.028 0.39655 329.023 1.16863 330.884C1.94072 332.744 3.07265 334.435 4.49975 335.859C5.92685 337.283 7.62116 338.413 9.48586 339.183C11.3506 339.954 13.3491 340.35 15.3674 340.35C17.3858 340.35 19.3845 339.954 21.2495 339.184C23.1144 338.413 24.809 337.284 26.2365 335.86C27.6639 334.435 28.7962 332.745 29.5688 330.884C30.3413 329.023 30.739 327.029 30.739 325.014V232.985C30.7378 228.917 29.118 225.016 26.2355 222.139C23.353 219.263 19.4438 217.646 15.3674 217.645ZM66.6046 151.183C64.5862 151.183 62.5875 151.58 60.7228 152.351C58.8581 153.122 57.1638 154.252 55.7367 155.677C54.3097 157.101 53.1778 158.792 52.4058 160.653C51.6338 162.514 51.2367 164.509 51.2373 166.523V391.48C51.2367 393.494 51.6338 395.489 52.4059 397.35C53.178 399.21 54.3099 400.901 55.737 402.325C57.1641 403.75 58.8584 404.879 60.7231 405.65C62.5878 406.42 64.5864 406.816 66.6046 406.816C68.623 406.816 70.6218 406.42 72.4867 405.65C74.3517 404.879 76.0463 403.75 77.4737 402.326C78.9012 400.902 80.0335 399.211 80.806 397.35C81.5786 395.489 81.9762 393.495 81.9762 391.48V166.523C81.9751 162.455 80.3552 158.554 77.4727 155.677C74.5902 152.801 70.6811 151.184 66.6046 151.183ZM117.838 100.057C113.761 100.057 109.851 101.673 106.968 104.55C104.086 107.427 102.466 111.328 102.466 115.397V442.607C102.466 446.675 104.086 450.577 106.968 453.454C109.851 456.33 113.761 457.947 117.838 457.947C121.914 457.947 125.824 456.33 128.707 453.454C131.59 450.577 133.209 446.675 133.209 442.607V115.397C133.208 111.329 131.588 107.428 128.706 104.551C125.823 101.675 121.914 100.058 117.838 100.057ZM169.071 189.532C164.995 189.532 161.085 191.148 158.203 194.024C155.32 196.9 153.7 200.8 153.699 204.868V353.136C153.699 357.203 155.318 361.104 158.201 363.981C161.083 366.857 164.992 368.473 169.068 368.473C173.145 368.473 177.054 366.857 179.936 363.981C182.819 361.104 184.438 357.203 184.438 353.136V204.868C184.437 200.801 182.817 196.901 179.936 194.025C177.054 191.15 173.146 189.534 169.071 189.532ZM220.299 100.057C216.223 100.058 212.315 101.675 209.433 104.551C206.551 107.428 204.932 111.329 204.932 115.397V442.607C204.932 446.674 206.551 450.575 209.433 453.451C212.315 456.327 216.224 457.942 220.299 457.942C224.375 457.942 228.284 456.327 231.166 453.451C234.048 450.575 235.667 446.674 235.667 442.607V115.397C235.667 113.382 235.27 111.388 234.498 109.527C233.726 107.666 232.594 105.974 231.167 104.55C229.74 103.126 228.046 101.996 226.181 101.225C224.316 100.454 222.318 100.057 220.299 100.057ZM271.537 176.747C267.461 176.748 263.552 178.364 260.67 181.241C257.788 184.118 256.169 188.019 256.169 192.086V365.913C256.121 367.957 256.483 369.99 257.234 371.893C257.984 373.796 259.108 375.529 260.54 376.992C261.972 378.455 263.682 379.617 265.571 380.411C267.459 381.204 269.488 381.613 271.537 381.613C273.586 381.613 275.614 381.204 277.503 380.411C279.391 379.617 281.101 378.455 282.533 376.992C283.965 375.529 285.089 373.796 285.84 371.893C286.59 369.99 286.952 367.957 286.904 365.913V192.086C286.903 188.019 285.284 184.119 282.402 181.242C279.52 178.366 275.612 176.749 271.537 176.747ZM322.77 220.203C318.693 220.204 314.784 221.821 311.901 224.697C309.019 227.574 307.399 231.475 307.398 235.543V322.461C307.466 326.484 309.115 330.32 311.99 333.141C314.866 335.963 318.737 337.543 322.77 337.543C326.802 337.542 330.673 335.961 333.548 333.138C336.422 330.316 338.07 326.48 338.137 322.456V235.543C338.136 231.476 336.517 227.575 333.635 224.699C330.753 221.823 326.845 220.206 322.77 220.203Z" fill="black"/>
</g>
<defs>
<clipPath id="clip0_1_3949">
<rect width="338.137" height="357.89" fill="white" transform="translate(0 100.054)"/>
</clipPath>
</defs>
</svg>
